# xmcd
#
# Track frame offsets:
#	150
#	20009
#	38613
#	63147
#	77224
#	93266
#	111211
#	133372
#	155159
#	174957
#	189828
#
# Disc length: 2592 seconds
# Revision: 1
# Processed by: cddbd v1.5.2PL0 Copyright (c) Steve Scherf et al.
# Submitted via: dBpowerAMP V12.0
#
DISCID=880a1e0b
DTITLE=Sandra Hall - Showin' Off
DYEAR=1995
DGENRE=Blues
TTITLE0=Right in The Middle
TTITLE1=Why Does it Feel so Right
TTITLE2=I Need to Love You
TTITLE3=I Got The Will
TTITLE4=I Miss You so
TTITLE5=Back in The Street Again
TTITLE6=Ball and Chain
TTITLE7=Stop Trying to Run my Life
TTITLE8=I Wanna See What You Say
TTITLE9=Wounded Woman
TTITLE10=Thank You Jesus
EXTD=
EXTT0=
EXTT1=
EXTT2=
EXTT3=
EXTT4=
EXTT5=
EXTT6=
EXTT7=
EXTT8=
EXTT9=
EXTT10=
PLAYORDER=
